<?xml version="1.0" encoding="UTF-8"?>
<svg id="Layer_2" data-name="Layer 2" xmlns="http://www.w3.org/2000/svg" viewBox="0 0 510.76 172.02">
  <defs>
    <style>
      .cls-1 {
        fill: #fff;
      }
    </style>
  </defs>
  <g id="Layer_1-2" data-name="Layer 1">
    <path class="cls-1" d="M84.23,55.33c-2.13-.64-4.01-1.76-5.62-3.34-2.72-2.67-4.08-6.05-4.08-10.13,0-1.21.1-2.37.29-3.46-7.75-6.85-17.15-9.11-27.56-9.13-7.1-.01-13.82,1.08-20.35,3.85-10.97,4.67-19.2,13.41-23.38,24.6-6.81,18.23-4.62,39.94,14.21,49.76,7.37,3.84,15.26,5,23.6,5.03,8.64.04,17.13-1.71,24.67-5.62-1.85-2.41-2.78-5.29-2.78-8.66,0-3.79.94-7.02,2.85-9.7l-1.74-2.81c-8.32,7.61-20.98,9.54-31.08,6.29-6.59-2.34-10.26-7.24-10.81-14.43l60.64-.02c1.86-7.42,2.57-15.09,1.14-22.23ZM23.84,63.48c1.82-5.89,5.54-11.02,11.19-13.84,8.67-4.33,22.24-3.7,27.06,5.87,1.08,2.47,1.75,4.77,1.91,7.96H23.84Z"/>
    <polygon class="cls-1" points="145.56 111.1 122.03 111.1 129.81 72.92 144.44 0 167.84 .03 161.72 29.91 145.56 111.1"/>
    <path class="cls-1" d="M129.45,0l-2.97,14.51-10.6,52.51-8.81,44.05-23.07.05c.57-.23,1.13-.5,1.68-.81,2.41-1.35,4.37-3.27,5.89-5.73,1.51-2.45,2.27-5.31,2.27-8.55,0-4.19-1.33-7.62-4-10.29-.27-.27-.55-.53-.84-.77l5.34-26.7.66-3.39c.68-.26,1.34-.57,1.98-.93,2.41-1.36,4.37-3.27,5.89-5.73,1.52-2.46,2.28-5.31,2.28-8.56,0-4.18-1.34-7.61-4.01-10.28-.31-.31-.64-.61-.97-.88L105.75,0h23.7Z"/>
    <path class="cls-1" d="M397.24,85.67l9.19,15.95c-11.5,9.82-25.14,11.72-39.85,10.59-10.71-.82-21.64-5.3-28.17-14.09-8.79-11.83-8.42-27.93-3.13-41.13,3.72-9.28,10.32-16.73,19.07-21.55,6.09-3.36,12.71-5.48,19.74-5.96,9.49-.65,19.12.21,27.49,4.73,16.68,8.78,19.14,26.44,14.77,43.37h-61.94c.78,10.16,6.87,14.38,16.56,15.8,5.13.4,10.13.02,15.06-1.43,4.13-1.32,7.61-3.18,11.21-6.27ZM396.53,63.47c.19-6.92-3.68-12.44-9.7-14.78-12.77-4.69-27.09,1-31.04,14.79l20.94.08,19.8-.09Z"/>
    <path class="cls-1" d="M477.96,50.46c-9.07-2.05-18.95.36-24.34,8.61-2.32,3.55-3.75,7.4-4.52,11.61l-3.56,17.32-4.63,23.11h-23.1s4.65-23.43,4.65-23.43l11.36-57.23h22.27s-1.74,8.65-1.74,8.65c8.2-7.19,16.91-9.74,27.47-9.8,13.15-.07,24.82,5.43,28.11,18.99,1.24,5.12.89,10.18.28,15.5l-6.11,29.52-3.56,17.8h-23.75s9-43.98,9-43.98c1.35-6.88-.11-14.93-7.83-16.67Z"/>
    <polygon class="cls-1" points="317.98 30.44 341.79 30.44 304.92 89.09 291.25 111.12 266.44 111.08 248.54 30.47 272.11 30.43 280.87 72.43 283.66 85.36 298.7 61.45 317.98 30.44"/>
    <g>
      <path class="cls-1" d="M304.22,171.7v-33.66h4.36v9.1l-.71-1.6c1.03-2.44,2.68-4.35,4.97-5.74,2.29-1.39,4.99-2.08,8.11-2.08,3.29,0,6.09.82,8.4,2.47,2.31,1.65,3.8,4.11,4.49,7.41l-1.79-.71c.98-2.73,2.72-4.95,5.23-6.64,2.5-1.69,5.5-2.53,9.01-2.53,2.73,0,5.12.52,7.15,1.57,2.03,1.05,3.61,2.64,4.75,4.78,1.13,2.14,1.7,4.83,1.7,8.08v19.56h-4.55v-19.11c0-3.55-.84-6.23-2.53-8.05-1.69-1.82-4.07-2.73-7.15-2.73-2.31,0-4.31.48-6,1.44-1.69.96-2.99,2.35-3.91,4.17-.92,1.82-1.38,4.01-1.38,6.57v17.7h-4.55v-19.11c0-3.55-.86-6.23-2.57-8.05-1.71-1.82-4.1-2.73-7.18-2.73-2.27,0-4.25.48-5.96,1.44-1.71.96-3.02,2.35-3.94,4.17-.92,1.82-1.38,4.01-1.38,6.57v17.7h-4.55Z"/>
      <path class="cls-1" d="M386.55,172.02c-3.51,0-6.58-.74-9.23-2.21s-4.72-3.5-6.22-6.09c-1.5-2.59-2.24-5.55-2.24-8.88s.72-6.28,2.15-8.85c1.43-2.56,3.4-4.58,5.9-6.06,2.5-1.47,5.31-2.21,8.43-2.21s5.97.72,8.43,2.15c2.46,1.43,4.39,3.44,5.8,6.03,1.41,2.59,2.12,5.57,2.12,8.94,0,.21-.01.44-.03.67-.02.24-.03.48-.03.74h-29.3v-3.4h26.87l-1.79,1.35c0-2.44-.52-4.61-1.57-6.51-1.05-1.9-2.47-3.39-4.26-4.46-1.79-1.07-3.87-1.6-6.22-1.6s-4.38.54-6.22,1.6c-1.84,1.07-3.27,2.56-4.3,4.49-1.03,1.92-1.54,4.13-1.54,6.6v.71c0,2.56.57,4.82,1.7,6.76,1.13,1.95,2.71,3.46,4.74,4.55,2.03,1.09,4.35,1.64,6.96,1.64,2.05,0,3.96-.36,5.74-1.09,1.77-.73,3.3-1.84,4.58-3.33l2.56,2.95c-1.5,1.8-3.37,3.16-5.61,4.1-2.24.94-4.71,1.41-7.41,1.41Z"/>
      <path class="cls-1" d="M424.38,172.02c-3.21,0-6.08-.73-8.62-2.18-2.54-1.45-4.54-3.47-6-6.06-1.45-2.59-2.18-5.57-2.18-8.94s.73-6.41,2.18-8.98c1.45-2.56,3.45-4.56,6-6,2.54-1.43,5.42-2.15,8.62-2.15,2.95,0,5.59.66,7.92,1.99,2.33,1.33,4.19,3.26,5.58,5.8,1.39,2.54,2.08,5.65,2.08,9.33s-.68,6.73-2.05,9.3c-1.37,2.56-3.22,4.52-5.55,5.87-2.33,1.35-4.99,2.02-7.98,2.02ZM424.7,167.98c2.39,0,4.54-.54,6.44-1.64,1.9-1.09,3.4-2.63,4.49-4.62,1.09-1.99,1.64-4.28,1.64-6.89s-.54-4.96-1.64-6.92c-1.09-1.97-2.59-3.49-4.49-4.58s-4.05-1.64-6.44-1.64-4.47.55-6.35,1.64c-1.88,1.09-3.38,2.62-4.49,4.58-1.11,1.97-1.67,4.27-1.67,6.92s.55,4.91,1.67,6.89c1.11,1.99,2.61,3.53,4.49,4.62,1.88,1.09,4,1.64,6.35,1.64ZM437.39,171.7v-10.13l.45-6.8-.64-6.8v-23.85h4.55v47.58h-4.36Z"/>
      <path class="cls-1" d="M456.76,130.6c-.94,0-1.73-.32-2.37-.96-.64-.64-.96-1.41-.96-2.31s.32-1.66.96-2.28c.64-.62,1.43-.93,2.37-.93s1.73.3,2.37.9c.64.6.96,1.35.96,2.24s-.31,1.73-.93,2.37c-.62.64-1.42.96-2.4.96ZM454.45,171.7v-33.66h4.55v33.66h-4.55Z"/>
      <path class="cls-1" d="M481.19,172.02c-2.52,0-4.71-.42-6.57-1.25-1.86-.83-3.28-1.99-4.26-3.46s-1.47-3.17-1.47-5.1c0-1.75.42-3.34,1.25-4.78.83-1.43,2.2-2.59,4.1-3.46,1.9-.88,4.46-1.31,7.66-1.31h11.61v3.4h-11.48c-3.25,0-5.5.58-6.76,1.73-1.26,1.15-1.89,2.59-1.89,4.3,0,1.92.75,3.46,2.24,4.62,1.5,1.15,3.59,1.73,6.28,1.73s4.78-.59,6.64-1.76c1.86-1.18,3.22-2.87,4.07-5.1l1.03,3.14c-.86,2.22-2.34,4-4.46,5.32-2.12,1.33-4.78,1.99-7.98,1.99ZM492.79,171.7v-7.44l-.19-1.22v-12.44c0-2.86-.8-5.07-2.41-6.6-1.6-1.54-3.99-2.31-7.15-2.31-2.18,0-4.25.36-6.22,1.09-1.97.73-3.63,1.69-5,2.89l-2.05-3.4c1.71-1.45,3.76-2.57,6.16-3.37,2.39-.79,4.92-1.19,7.57-1.19,4.36,0,7.73,1.08,10.1,3.24,2.37,2.16,3.56,5.44,3.56,9.84v20.9h-4.36Z"/>
    </g>
    <path class="cls-1" d="M231.1,33.27c-5.95-2.92-12.31-3.91-18.93-3.99-7.28-.08-14.12,1.11-20.71,4.18-6.08,2.83-11.34,6.9-15.39,12.1l-8.54,42.68c2.26,7.92,7.09,14.86,15.16,19.25,9.5,5.17,18.44,5.29,29.08,4.76,9.76-1.09,19-4.46,26.61-10.69l-9.96-15.94c-4.1,3.77-8.59,5.87-13.86,7.17-3.74.68-7.23.87-10.85.63-9.42-.88-16.2-6.14-16.6-15.83l60.44-.04c4.49-17.81.91-35.76-16.45-44.28ZM188.6,63.48c1.68-5.9,5.13-10.93,10.46-13.75,6.09-3.22,13.48-3.58,19.8-.85,5.76,2.48,8.76,8.26,8.69,14.58l-38.95.02Z"/>
  </g>
</svg>