<?xml version="1.0" encoding="UTF-8"?>
<svg id="Layer_2" data-name="Layer 2" xmlns="http://www.w3.org/2000/svg" viewBox="0 0 550.12 186.58">
  <defs>
    <style>
      .cls-1 {
        fill: #231f20;
      }
    </style>
  </defs>
  <g id="Layer_1-2" data-name="Layer 1">
    <g>
      <path class="cls-1" d="M399.76,100.22c9.9.87,20.31-1.36,28.05-8.31l9.98,17.27c-11.82,10.27-26.51,12.66-41.93,11.55-15.12-.95-29.27-7.86-35.53-22.24-5.05-11.59-4.08-24.8.32-36.43,3.93-10.39,11.21-18.76,20.94-24.13,7.95-4.39,16.54-6.6,25.66-6.6,12.35,0,22.41,1.94,32.1,9.9,12.21,10.75,12.93,27.18,9.12,42.17h-66.59c.26,6.61,3.35,11.91,9.46,14.58,2.68,1.17,5.49,1.97,8.43,2.23ZM427.09,68.24c.29-6.98-3.52-13.11-9.79-15.74-13.83-5.79-30.38.88-34.15,15.74h43.94Z"/>
      <path class="cls-1" d="M523.26,71.07c1.05-6.37-.54-14.46-7.41-16.47-5.19-1.51-10.58-1.48-15.73.15-9.49,3-14.29,11.15-16.28,20.5l-8.94,44.21-25.04-.03,17.25-86.87,24.1.03-1.69,8.99c6.19-5.25,13.19-8.56,21.17-9.66,8.57-1.18,17.71-.83,25.52,3.12,14.33,7.25,15.68,23.31,12.49,37.51l-9.59,46.9-25.74-.02,9.9-48.37Z"/>
      <path class="cls-1" d="M246.06,91.9l10.8,17.23c-7.09,5.89-15.64,9.39-24.83,11.05-6.67,1.01-13.17.99-19.88.31-6.62-.86-12.76-2.96-18.31-6.68-20.36-13.67-18.08-44.7-5.62-62.99,6.43-9.45,16.39-15.68,27.5-18.19,7.69-1.74,15.4-1.68,23.12-.3,7.16,1.28,13.52,4.48,18.91,9.24,11.59,10.86,12.68,27.26,8.91,41.84l-64.98.02c.03,6.84,4.07,12.71,10.46,15.15,3.89,1.64,7.96,1.95,12.24,1.78,8.06-.14,15.58-2.99,21.67-8.45ZM245.13,68.25c.13-5.96-2.31-11.83-7.45-14.8-8.24-4.76-18.6-3.76-26.23,1.7-4.18,3.4-6.96,7.72-8.36,13.12l42.04-.02Z"/>
      <path class="cls-1" d="M69.37,92.02l3.34,5.34c-8.47,4.31-12.49,11.73-9.96,21.03-8.31,2.54-16.66,3.05-25.15,2.29-6.8-.61-13.08-2.21-19.03-5.41C-1.97,104.24-3.61,79.45,4.64,59.88c5.51-13.07,16.42-22.53,30.09-26.46,14.34-3.85,33.86-3.1,45.46,7.31-3.46,5.16-4.01,11.48-1.27,16.83,2.78,4.54,7.27,7.33,12.65,8.41.32,5.82-.52,11.67-1.99,17.42l-65.19.02c.28,7.1,4.51,12.98,11.22,15.24,7.84,2.64,16.24,2.23,23.97-.63,3.62-1.48,6.59-3.24,9.77-6ZM68.86,68.1c-.31-8.57-4.77-14.67-12.67-16.67-12.99-3.3-26.61,3.4-30.26,16.67h42.92Z"/>
      <polygon class="cls-1" points="368.19 32.63 327.82 96.81 313.74 119.48 286.87 119.41 267.59 32.62 293.13 32.56 305.55 91.38 342.37 32.6 368.19 32.63"/>
      <polygon class="cls-1" points="156.72 119.28 131.61 119.27 139.67 79.79 155.7 .02 180.66 .03 174.44 30.32 156.72 119.28"/>
      <path class="cls-1" d="M102.03,104.53c-1.64-3.19-4.02-5.45-7.22-7.18l6.25-31.22c4.88-.82,9.1-2.78,12.5-6.16,5.2-4.97,6.5-12.66,3.29-19.06-2.12-3.63-5.36-6.04-9.35-7.56L114.04,0h25.26s-12.26,60.5-12.26,60.5l-11.78,58.74-14.01.04c2.49-4.63,2.89-9.84.78-14.76Z"/>
      <path class="cls-1" d="M360.04,165.56l-.07,20.6-5.04.03-.18-22.96c-.05-5.78-4.75-9.35-10.18-9.23-3.84.08-7.41,1.2-9.72,4.39-1.65,2.27-2.47,5.12-2.48,8.03l-.03,19.78-5.05-.02v-36.34s4.9-.07,4.9-.07l.07,6.04c2-2.77,4.49-4.58,7.71-5.63,6.79-1.87,15.12-.49,18.47,6.69,3.1-4.73,7.88-7.25,13.35-7.41,3.57-.1,7.07.37,10.07,2.49,3.34,2.37,5.51,6.31,5.53,10.6l.14,23.65h-5.03s-.14-22.62-.14-22.62c-.04-5.9-4.57-9.73-10.18-9.57-3.69.11-7.12,1.02-9.45,4.05-1.53,1.99-2.68,4.65-2.69,7.5Z"/>
      <path class="cls-1" d="M457.1,186.58c-8.73.05-15.94-5.57-17.71-13.95-.61-2.88-.59-5.77-.15-8.67,1.5-8.73,8.92-14.57,17.72-14.55,5.55.02,10.34,2.04,13.91,6.79l.06-21.25h5.05s0,51.17,0,51.17l-4.79.11-.2-6.7c-3.33,4.73-8.09,7.01-13.88,7.05ZM457.1,182.04c6.07.15,11.08-3.16,13-8.75,1.11-3.23,1.15-6.82.19-10.13-1.64-5.68-6.61-9.16-12.39-9.32-5.72-.16-10.88,3.01-12.9,8.51-1.36,3.71-1.32,7.86.15,11.52,1.98,4.95,6.48,8.02,11.95,8.16Z"/>
      <path class="cls-1" d="M427.55,177.27l2.84,3.22c-4.76,6.11-14.1,7.28-21.13,4.98-8.07-2.64-12.48-10.13-12.2-18.39.35-10.45,8.51-18.28,19.02-17.67s17.33,9.34,16.52,19.91h-30.53c.3,7.37,6.33,12.59,13.63,12.7,4.52.06,8.65-1.05,11.85-4.76ZM427.81,165.75c-.61-7.26-6.24-12.18-13.09-11.95-6.83-.01-12.13,5.12-12.59,11.96h25.69Z"/>
      <path class="cls-1" d="M523.67,185.9c-6.75,1.73-16.4.16-18.21-7.21-.92-3.77-.1-7.59,2.76-10.03,2.43-2.07,5.63-3.03,8.85-3.05l13.59-.11c.47-4.95-.97-9.91-6.17-11.15-5.8-1.37-11.81.17-16.17,3.84l-2.25-3.93c6.07-4.6,13.77-5.95,21-4,5.07,1.37,8.55,5.82,8.58,11.13l.14,24.76-4.81.08-.14-5.2c-2.01,2.42-4.22,4.12-7.18,4.87ZM530.55,175.11c.35-1.85.09-3.8.1-5.79h-12.01c-1.78.01-3.79.34-5.33,1.1-2.4,1.18-3.42,3.62-3.16,6.15.22,2.13,1.68,4.18,4.04,5.07,6.77,2.56,15.25-.62,16.36-6.53Z"/>
      <rect class="cls-1" x="489.43" y="149.77" width="5.2" height="36.44"/>
      <ellipse class="cls-1" cx="492.1" cy="138.31" rx="3.63" ry="3.63"/>
    </g>
  </g>
</svg>